<svg xmlns="http://www.w3.org/2000/svg" xmlns:xlink="http://www.w3.org/1999/xlink" id="body_4" preserveAspectRatio="xMinYMin meet" viewBox="0 0 792 1121"><defs><clipPath id="1"><path id="" clip-rule="evenodd" transform="matrix(1 0 0 1 0 0)" d="M0 841L0 -0.9199829L0 -0.9199829L594.96 -0.9199829L594.96 -0.9199829L594.96 841L594.96 841L0 841z" /></clipPath><clipPath id="2"><path id="" clip-rule="evenodd" transform="matrix(1 0 0 1 0 0)" d="M8.866E-06 841L594.96 841L594.96 841L594.96 -0.9199829L594.96 -0.9199829L8.866E-06 -0.9199829z" /></clipPath><clipPath id="3"><path id="" clip-rule="evenodd" transform="matrix(1 0 0 1 0 0)" d="M8.866E-06 841L594.96 841L594.96 841L594.96 -0.9199829L594.96 -0.9199829L8.866E-06 -0.9199829z" /></clipPath><clipPath id="4"><path id="" clip-rule="evenodd" transform="matrix(1 0 0 1 0 0)" d="M-1.412E-06 840.9997L594.96 840.9997L594.96 840.9997L594.96 -0.9202881L594.96 -0.9202881L-1.412E-06 -0.9202881z" /></clipPath><clipPath id="5"><path id="" clip-rule="evenodd" transform="matrix(1 0 0 1 0 0)" d="M-8E-09 840.9998L594.96 840.9998L594.96 840.9998L594.96 -0.920166L594.96 -0.920166L-8E-09 -0.920166z" /></clipPath><clipPath id="6"><path id="" clip-rule="evenodd" transform="matrix(1 0 0 1 0 0)" d="M8.866E-06 841L594.96 841L594.96 841L594.96 -0.9199829L594.96 -0.9199829L8.866E-06 -0.9199829z" /></clipPath><clipPath id="7"><path id="" clip-rule="evenodd" transform="matrix(1 0 0 1 0 0)" d="M8.866E-06 841L594.96 841L594.96 841L594.96 -0.9199829L594.96 -0.9199829L8.866E-06 -0.9199829z" /></clipPath><clipPath id="8"><path id="" clip-rule="evenodd" transform="matrix(1 0 0 1 0 0)" d="M8.866E-06 841L594.96 841L594.96 841L594.96 -0.9199829L594.96 -0.9199829L8.866E-06 -0.9199829z" /></clipPath><clipPath id="9"><path id="" clip-rule="evenodd" transform="matrix(1 0 0 1 0 0)" d="M8.866E-06 841L594.96 841L594.96 841L594.96 -0.9199829L594.96 -0.9199829L8.866E-06 -0.9199829z" /></clipPath><clipPath id="10"><path id="" clip-rule="evenodd" transform="matrix(1 0 0 1 0 0)" d="M8.866E-06 841L594.96 841L594.96 841L594.96 -0.9199829L594.96 -0.9199829L8.866E-06 -0.9199829z" /></clipPath><clipPath id="11"><path id="" clip-rule="evenodd" transform="matrix(1 0 0 1 0 0)" d="M8.866E-06 841L594.96 841L594.96 841L594.96 -0.9199829L594.96 -0.9199829L8.866E-06 -0.9199829z" /></clipPath><clipPath id="12"><path id="" clip-rule="evenodd" transform="matrix(1 0 0 1 0 0)" d="M8.866E-06 841L594.96 841L594.96 841L594.96 -0.9199829L594.96 -0.9199829L8.866E-06 -0.9199829z" /></clipPath><clipPath id="13"><path id="" clip-rule="evenodd" transform="matrix(1 0 0 1 0 0)" d="M8.866E-06 841L594.96 841L594.96 841L594.96 -0.9199829L594.96 -0.9199829L8.866E-06 -0.9199829z" /></clipPath><clipPath id="14"><path id="" clip-rule="evenodd" transform="matrix(1 0 0 1 0 0)" d="M8.866E-06 841L594.96 841L594.96 841L594.96 -0.9199829L594.96 -0.9199829L8.866E-06 -0.9199829z" /></clipPath><clipPath id="15"><path id="" clip-rule="evenodd" transform="matrix(1 0 0 1 0 0)" d="M8.866E-06 841L594.96 841L594.96 841L594.96 -0.9199829L594.96 -0.9199829L8.866E-06 -0.9199829z" /></clipPath><clipPath id="16"><path id="" clip-rule="evenodd" transform="matrix(1 0 0 1 0 0)" d="M8.866E-06 841L594.96 841L594.96 841L594.96 -0.9199829L594.96 -0.9199829L8.866E-06 -0.9199829z" /></clipPath><clipPath id="17"><path id="" clip-rule="evenodd" transform="matrix(1 0 0 1 0 0)" d="M8.866E-06 841L594.96 841L594.96 841L594.96 -0.9199829L594.96 -0.9199829L8.866E-06 -0.9199829z" /></clipPath><clipPath id="18"><path id="" clip-rule="evenodd" transform="matrix(1 0 0 1 0 0)" d="M8.866E-06 841L594.96 841L594.96 841L594.96 -0.9199829L594.96 -0.9199829L8.866E-06 -0.9199829z" /></clipPath><clipPath id="19"><path id="" clip-rule="evenodd" transform="matrix(1 0 0 1 0 0)" d="M8.866E-06 841L594.96 841L594.96 841L594.96 -0.9199829L594.96 -0.9199829L8.866E-06 -0.9199829z" /></clipPath><clipPath id="20"><path id="" clip-rule="evenodd" transform="matrix(1 0 0 1 0 0)" d="M8.866E-06 841L594.96 841L594.96 841L594.96 -0.9199829L594.96 -0.9199829L8.866E-06 -0.9199829z" /></clipPath><clipPath id="21"><path id="" clip-rule="evenodd" transform="matrix(1 0 0 1 0 0)" d="M8.866E-06 841L594.96 841L594.96 841L594.96 -0.9199829L594.96 -0.9199829L8.866E-06 -0.9199829z" /></clipPath><clipPath id="22"><path id="" clip-rule="evenodd" transform="matrix(1 0 0 1 0 0)" d="M8.866E-06 841L594.96 841L594.96 841L594.96 -0.9199829L594.96 -0.9199829L8.866E-06 -0.9199829z" /></clipPath><clipPath id="23"><path id="" clip-rule="evenodd" transform="matrix(1 0 0 1 0 0)" d="M8.866E-06 841L594.96 841L594.96 841L594.96 -0.9199829L594.96 -0.9199829L8.866E-06 -0.9199829z" /></clipPath><clipPath id="24"><path id="" clip-rule="evenodd" transform="matrix(1 0 0 1 0 0)" d="M8.866E-06 841L594.96 841L594.96 841L594.96 -0.9199829L594.96 -0.9199829L8.866E-06 -0.9199829z" /></clipPath><clipPath id="25"><path id="" clip-rule="evenodd" transform="matrix(1 0 0 1 0 0)" d="M8.866E-06 841L594.96 841L594.96 841L594.96 -0.9199829L594.96 -0.9199829L8.866E-06 -0.9199829z" /></clipPath><clipPath id="26"><path id="" clip-rule="evenodd" transform="matrix(1 0 0 1 0 0)" d="M8.866E-06 841L594.96 841L594.96 841L594.96 -0.9199829L594.96 -0.9199829L8.866E-06 -0.9199829z" /></clipPath><clipPath id="27"><path id="" clip-rule="evenodd" transform="matrix(1 0 0 1 0 0)" d="M8.866E-06 841L594.96 841L594.96 841L594.96 -0.9199829L594.96 -0.9199829L8.866E-06 -0.9199829z" /></clipPath><clipPath id="28"><path id="" clip-rule="evenodd" transform="matrix(1 0 0 1 0 0)" d="M8.866E-06 841L594.96 841L594.96 841L594.96 -0.9199829L594.96 -0.9199829L8.866E-06 -0.9199829z" /></clipPath><clipPath id="29"><path id="" clip-rule="evenodd" transform="matrix(1 0 0 1 0 0)" d="M8.866E-06 841L594.96 841L594.96 841L594.96 -0.9199829L594.96 -0.9199829L8.866E-06 -0.9199829z" /></clipPath><clipPath id="30"><path id="" clip-rule="evenodd" transform="matrix(1 0 0 1 0 0)" d="M8.866E-06 841L594.96 841L594.96 841L594.96 -0.9199829L594.96 -0.9199829L8.866E-06 -0.9199829z" /></clipPath><clipPath id="31"><path id="" clip-rule="evenodd" transform="matrix(1 0 0 1 0 0)" d="M8.866E-06 841L594.96 841L594.96 841L594.96 -0.9199829L594.96 -0.9199829L8.866E-06 -0.9199829z" /></clipPath><clipPath id="32"><path id="" clip-rule="evenodd" transform="matrix(1 0 0 1 0 0)" d="M8.866E-06 841L594.96 841L594.96 841L594.96 -0.9199829L594.96 -0.9199829L8.866E-06 -0.9199829z" /></clipPath><clipPath id="33"><path id="" clip-rule="evenodd" transform="matrix(1 0 0 1 0 0)" d="M8.866E-06 841L594.96 841L594.96 841L594.96 -0.9199829L594.96 -0.9199829L8.866E-06 -0.9199829z" /></clipPath><clipPath id="34"><path id="" clip-rule="evenodd" transform="matrix(1 0 0 1 0 0)" d="M8.866E-06 841L594.96 841L594.96 841L594.96 -0.9199829L594.96 -0.9199829L8.866E-06 -0.9199829z" /></clipPath><clipPath id="35"><path id="" clip-rule="evenodd" transform="matrix(1 0 0 1 0 0)" d="M8.866E-06 841L594.96 841L594.96 841L594.96 -0.9199829L594.96 -0.9199829L8.866E-06 -0.9199829z" /></clipPath><clipPath id="36"><path id="" clip-rule="evenodd" transform="matrix(1 0 0 1 0 0)" d="M8.866E-06 841L594.96 841L594.96 841L594.96 -0.9199829L594.96 -0.9199829L8.866E-06 -0.9199829z" /></clipPath><clipPath id="37"><path id="" clip-rule="evenodd" transform="matrix(1 0 0 1 0 0)" d="M8.866E-06 841L594.96 841L594.96 841L594.96 -0.9199829L594.96 -0.9199829L8.866E-06 -0.9199829z" /></clipPath><clipPath id="38"><path id="" clip-rule="evenodd" transform="matrix(1 0 0 1 0 0)" d="M8.866E-06 841L594.96 841L594.96 841L594.96 -0.9199829L594.96 -0.9199829L8.866E-06 -0.9199829z" /></clipPath><clipPath id="39"><path id="" clip-rule="evenodd" transform="matrix(1 0 0 1 0 0)" d="M8.866E-06 841L594.96 841L594.96 841L594.96 -0.9199829L594.96 -0.9199829L8.866E-06 -0.9199829z" /></clipPath><clipPath id="40"><path id="" clip-rule="evenodd" transform="matrix(1 0 0 1 0 0)" d="M8.866E-06 841L594.96 841L594.96 841L594.96 -0.9199829L594.96 -0.9199829L8.866E-06 -0.9199829z" /></clipPath><clipPath id="41"><path id="" clip-rule="evenodd" transform="matrix(1 0 0 1 0 0)" d="M8.866E-06 841L594.96 841L594.96 841L594.96 -0.9199829L594.96 -0.9199829L8.866E-06 -0.9199829z" /></clipPath><clipPath id="42"><path id="" clip-rule="evenodd" transform="matrix(1 0 0 1 0 0)" d="M8.866E-06 841L594.96 841L594.96 841L594.96 -0.9199829L594.96 -0.9199829L8.866E-06 -0.9199829z" /></clipPath><clipPath id="43"><path id="" clip-rule="evenodd" transform="matrix(1 0 0 1 0 0)" d="M8.866E-06 841L594.96 841L594.96 841L594.96 -0.9199829L594.96 -0.9199829L8.866E-06 -0.9199829z" /></clipPath><clipPath id="44"><path id="" clip-rule="evenodd" transform="matrix(1 0 0 1 0 0)" d="M8.866E-06 841L594.96 841L594.96 841L594.96 -0.9199829L594.96 -0.9199829L8.866E-06 -0.9199829z" /></clipPath><clipPath id="45"><path id="" clip-rule="evenodd" transform="matrix(1 0 0 1 0 0)" d="M8.866E-06 841L594.96 841L594.96 841L594.96 -0.9199829L594.96 -0.9199829L8.866E-06 -0.9199829z" /></clipPath><clipPath id="46"><path id="" clip-rule="evenodd" transform="matrix(1 0 0 1 0 0)" d="M8.866E-06 841L594.96 841L594.96 841L594.96 -0.9199829L594.96 -0.9199829L8.866E-06 -0.9199829z" /></clipPath><clipPath id="47"><path id="" clip-rule="evenodd" transform="matrix(1 0 0 1 0 0)" d="M8.866E-06 841L594.96 841L594.96 841L594.96 -0.9199829L594.96 -0.9199829L8.866E-06 -0.9199829z" /></clipPath><clipPath id="48"><path id="" clip-rule="evenodd" transform="matrix(1 0 0 1 0 0)" d="M8.866E-06 841L594.96 841L594.96 841L594.96 -0.9199829L594.96 -0.9199829L8.866E-06 -0.9199829z" /></clipPath><clipPath id="49"><path id="" clip-rule="evenodd" transform="matrix(1 0 0 1 0 0)" d="M8.866E-06 841L594.96 841L594.96 841L594.96 -0.9199829L594.96 -0.9199829L8.866E-06 -0.9199829z" /></clipPath><clipPath id="50"><path id="" clip-rule="evenodd" transform="matrix(1 0 0 1 0 0)" d="M8.866E-06 841L594.96 841L594.96 841L594.96 -0.9199829L594.96 -0.9199829L8.866E-06 -0.9199829z" /></clipPath><clipPath id="51"><path id="" clip-rule="evenodd" transform="matrix(1 0 0 1 0 0)" d="M8.866E-06 841L594.96 841L594.96 841L594.96 -0.9199829L594.96 -0.9199829L8.866E-06 -0.9199829z" /></clipPath><clipPath id="52"><path id="" clip-rule="evenodd" transform="matrix(1 0 0 1 0 0)" d="M8.866E-06 841L594.96 841L594.96 841L594.96 -0.9199829L594.96 -0.9199829L8.866E-06 -0.9199829z" /></clipPath><clipPath id="53"><path id="" clip-rule="evenodd" transform="matrix(1 0 0 1 0 0)" d="M8.866E-06 841L594.96 841L594.96 841L594.96 -0.9199829L594.96 -0.9199829L8.866E-06 -0.9199829z" /></clipPath><clipPath id="54"><path id="" clip-rule="evenodd" transform="matrix(1 0 0 1 0 0)" d="M8.866E-06 841L594.96 841L594.96 841L594.96 -0.9199829L594.96 -0.9199829L8.866E-06 -0.9199829z" /></clipPath><clipPath id="55"><path id="" clip-rule="evenodd" transform="matrix(1 0 0 1 0 0)" d="M8.866E-06 841L594.96 841L594.96 841L594.96 -0.9199829L594.96 -0.9199829L8.866E-06 -0.9199829z" /></clipPath><clipPath id="56"><path id="" clip-rule="evenodd" transform="matrix(1 0 0 1 0 0)" d="M8.866E-06 841L594.96 841L594.96 841L594.96 -0.9199829L594.96 -0.9199829L8.866E-06 -0.9199829z" /></clipPath><clipPath id="57"><path id="" clip-rule="evenodd" transform="matrix(1 0 0 1 0 0)" d="M8.866E-06 841L594.96 841L594.96 841L594.96 -0.9199829L594.96 -0.9199829L8.866E-06 -0.9199829z" /></clipPath><clipPath id="58"><path id="" clip-rule="evenodd" transform="matrix(1 0 0 1 0 0)" d="M8.866E-06 841L594.96 841L594.96 841L594.96 -0.9199829L594.96 -0.9199829L8.866E-06 -0.9199829z" /></clipPath><clipPath id="59"><path id="" clip-rule="evenodd" transform="matrix(1 0 0 1 0 0)" d="M8.866E-06 841L594.96 841L594.96 841L594.96 -0.9199829L594.96 -0.9199829L8.866E-06 -0.9199829z" /></clipPath><clipPath id="60"><path id="" clip-rule="evenodd" transform="matrix(1 0 0 1 0 0)" d="M8.866E-06 841L594.96 841L594.96 841L594.96 -0.9199829L594.96 -0.9199829L8.866E-06 -0.9199829z" /></clipPath><clipPath id="61"><path id="" clip-rule="evenodd" transform="matrix(1 0 0 1 0 0)" d="M8.866E-06 841L594.96 841L594.96 841L594.96 -0.9199829L594.96 -0.9199829L8.866E-06 -0.9199829z" /></clipPath><clipPath id="62"><path id="" clip-rule="evenodd" transform="matrix(1 0 0 1 0 0)" d="M8.866E-06 841L594.96 841L594.96 841L594.96 -0.9199829L594.96 -0.9199829L8.866E-06 -0.9199829z" /></clipPath><clipPath id="63"><path id="" clip-rule="evenodd" transform="matrix(1 0 0 1 0 0)" d="M8.866E-06 841L594.96 841L594.96 841L594.96 -0.9199829L594.96 -0.9199829L8.866E-06 -0.9199829z" /></clipPath><clipPath id="64"><path id="" clip-rule="evenodd" transform="matrix(1 0 0 1 0 0)" d="M8.866E-06 841L594.96 841L594.96 841L594.96 -0.9199829L594.96 -0.9199829L8.866E-06 -0.9199829z" /></clipPath><clipPath id="65"><path id="" clip-rule="evenodd" transform="matrix(1 0 0 1 0 0)" d="M8.866E-06 841L594.96 841L594.96 841L594.96 -0.9199829L594.96 -0.9199829L8.866E-06 -0.9199829z" /></clipPath><clipPath id="66"><path id="" clip-rule="evenodd" transform="matrix(1 0 0 1 0 0)" d="M8.866E-06 841L594.96 841L594.96 841L594.96 -0.9199829L594.96 -0.9199829L8.866E-06 -0.9199829z" /></clipPath><clipPath id="67"><path id="" clip-rule="evenodd" transform="matrix(1 0 0 1 0 0)" d="M8.866E-06 841L594.96 841L594.96 841L594.96 -0.9199829L594.96 -0.9199829L8.866E-06 -0.9199829z" /></clipPath><clipPath id="68"><path id="" clip-rule="evenodd" transform="matrix(1 0 0 1 0 0)" d="M8.866E-06 841L594.96 841L594.96 841L594.96 -0.9199829L594.96 -0.9199829L8.866E-06 -0.9199829z" /></clipPath><clipPath id="69"><path id="" clip-rule="evenodd" transform="matrix(1 0 0 1 0 0)" d="M8.866E-06 841L594.96 841L594.96 841L594.96 -0.9199829L594.96 -0.9199829L8.866E-06 -0.9199829z" /></clipPath><clipPath id="70"><path id="" clip-rule="evenodd" transform="matrix(1 0 0 1 0 0)" d="M8.866E-06 841L594.96 841L594.96 841L594.96 -0.9199829L594.96 -0.9199829L8.866E-06 -0.9199829z" /></clipPath><clipPath id="71"><path id="" clip-rule="evenodd" transform="matrix(1 0 0 1 0 0)" d="M8.866E-06 841L594.96 841L594.96 841L594.96 -0.9199829L594.96 -0.9199829L8.866E-06 -0.9199829z" /></clipPath><clipPath id="72"><path id="" clip-rule="evenodd" transform="matrix(1 0 0 1 0 0)" d="M8.866E-06 841L594.96 841L594.96 841L594.96 -0.9199829L594.96 -0.9199829L8.866E-06 -0.9199829z" /></clipPath><clipPath id="73"><path id="" clip-rule="evenodd" transform="matrix(1 0 0 1 0 0)" d="M8.866E-06 841L594.96 841L594.96 841L594.96 -0.9199829L594.96 -0.9199829L8.866E-06 -0.9199829z" /></clipPath><clipPath id="74"><path id="" clip-rule="evenodd" transform="matrix(1 0 0 1 0 0)" d="M8.866E-06 841L594.96 841L594.96 841L594.96 -0.9199829L594.96 -0.9199829L8.866E-06 -0.9199829z" /></clipPath><clipPath id="75"><path id="" clip-rule="evenodd" transform="matrix(1 0 0 1 0 0)" d="M8.866E-06 841L594.96 841L594.96 841L594.96 -0.9199829L594.96 -0.9199829L8.866E-06 -0.9199829z" /></clipPath><clipPath id="76"><path id="" clip-rule="evenodd" transform="matrix(1 0 0 1 0 0)" d="M8.866E-06 841L594.96 841L594.96 841L594.96 -0.9199829L594.96 -0.9199829L8.866E-06 -0.9199829z" /></clipPath><clipPath id="77"><path id="" clip-rule="evenodd" transform="matrix(1 0 0 1 0 0)" d="M8.866E-06 841L594.96 841L594.96 841L594.96 -0.9199829L594.96 -0.9199829L8.866E-06 -0.9199829z" /></clipPath><clipPath id="78"><path id="" clip-rule="evenodd" transform="matrix(1 0 0 1 0 0)" d="M8.866E-06 841L594.96 841L594.96 841L594.96 -0.9199829L594.96 -0.9199829L8.866E-06 -0.9199829z" /></clipPath><clipPath id="79"><path id="" clip-rule="evenodd" transform="matrix(1 0 0 1 0 0)" d="M8.866E-06 841L594.96 841L594.96 841L594.96 -0.9199829L594.96 -0.9199829L8.866E-06 -0.9199829z" /></clipPath><clipPath id="80"><path id="" clip-rule="evenodd" transform="matrix(1 0 0 1 0 0)" d="M8.866E-06 841L594.96 841L594.96 841L594.96 -0.9199829L594.96 -0.9199829L8.866E-06 -0.9199829z" /></clipPath><clipPath id="81"><path id="" clip-rule="evenodd" transform="matrix(1 0 0 1 0 0)" d="M8.866E-06 841L594.96 841L594.96 841L594.96 -0.9199829L594.96 -0.9199829L8.866E-06 -0.9199829z" /></clipPath><clipPath id="82"><path id="" clip-rule="evenodd" transform="matrix(1 0 0 1 0 0)" d="M8.866E-06 841L594.96 841L594.96 841L594.96 -0.9199829L594.96 -0.9199829L8.866E-06 -0.9199829z" /></clipPath><clipPath id="83"><path id="" clip-rule="evenodd" transform="matrix(1 0 0 1 0 0)" d="M8.866E-06 841L594.96 841L594.96 841L594.96 -0.9199829L594.96 -0.9199829L8.866E-06 -0.9199829z" /></clipPath><clipPath id="84"><path id="" clip-rule="evenodd" transform="matrix(1 0 0 1 0 0)" d="M8.866E-06 841L594.96 841L594.96 841L594.96 -0.9199829L594.96 -0.9199829L8.866E-06 -0.9199829z" /></clipPath><clipPath id="85"><path id="" clip-rule="evenodd" transform="matrix(1 0 0 1 0 0)" d="M8.866E-06 841L594.96 841L594.96 841L594.96 -0.9199829L594.96 -0.9199829L8.866E-06 -0.9199829z" /></clipPath><clipPath id="86"><path id="" clip-rule="evenodd" transform="matrix(1 0 0 1 0 0)" d="M8.866E-06 841L594.96 841L594.96 841L594.96 -0.9199829L594.96 -0.9199829L8.866E-06 -0.9199829z" /></clipPath><clipPath id="87"><path id="" clip-rule="evenodd" transform="matrix(1 0 0 1 0 0)" d="M8.866E-06 841L594.96 841L594.96 841L594.96 -0.9199829L594.96 -0.9199829L8.866E-06 -0.9199829z" /></clipPath><clipPath id="88"><path id="" clip-rule="evenodd" transform="matrix(1 0 0 1 0 0)" d="M8.866E-06 841L594.96 841L594.96 841L594.96 -0.9199829L594.96 -0.9199829L8.866E-06 -0.9199829z" /></clipPath><clipPath id="89"><path id="" clip-rule="evenodd" transform="matrix(1 0 0 1 0 0)" d="M8.866E-06 841L594.96 841L594.96 841L594.96 -0.9199829L594.96 -0.9199829L8.866E-06 -0.9199829z" /></clipPath><clipPath id="90"><path id="" clip-rule="evenodd" transform="matrix(1 0 0 1 0 0)" d="M8.866E-06 841L594.96 841L594.96 841L594.96 -0.9199829L594.96 -0.9199829L8.866E-06 -0.9199829z" /></clipPath><clipPath id="91"><path id="" clip-rule="evenodd" transform="matrix(1 0 0 1 0 0)" d="M8.866E-06 841L594.96 841L594.96 841L594.96 -0.9199829L594.96 -0.9199829L8.866E-06 -0.9199829z" /></clipPath><clipPath id="92"><path id="" clip-rule="evenodd" transform="matrix(1 0 0 1 0 0)" d="M8.866E-06 841L594.96 841L594.96 841L594.96 -0.9199829L594.96 -0.9199829L8.866E-06 -0.9199829z" /></clipPath><clipPath id="93"><path id="" clip-rule="evenodd" transform="matrix(1 0 0 1 0 0)" d="M8.866E-06 841L594.96 841L594.96 841L594.96 -0.9199829L594.96 -0.9199829L8.866E-06 -0.9199829z" /></clipPath><clipPath id="94"><path id="" clip-rule="evenodd" transform="matrix(1 0 0 1 0 0)" d="M8.866E-06 841L594.96 841L594.96 841L594.96 -0.9199829L594.96 -0.9199829L8.866E-06 -0.9199829z" /></clipPath><clipPath id="95"><path id="" clip-rule="evenodd" transform="matrix(1 0 0 1 0 0)" d="M8.866E-06 841L594.96 841L594.96 841L594.96 -0.9199829L594.96 -0.9199829L8.866E-06 -0.9199829z" /></clipPath><clipPath id="96"><path id="" clip-rule="evenodd" transform="matrix(1 0 0 1 0 0)" d="M8.866E-06 841L594.96 841L594.96 841L594.96 -0.9199829L594.96 -0.9199829L8.866E-06 -0.9199829z" /></clipPath><clipPath id="97"><path id="" clip-rule="evenodd" transform="matrix(1 0 0 1 0 0)" d="M8.866E-06 841L594.96 841L594.96 841L594.96 -0.9199829L594.96 -0.9199829L8.866E-06 -0.9199829z" /></clipPath><clipPath id="98"><path id="" clip-rule="evenodd" transform="matrix(1 0 0 1 0 0)" d="M8.866E-06 841L594.96 841L594.96 841L594.96 -0.9199829L594.96 -0.9199829L8.866E-06 -0.9199829z" /></clipPath><clipPath id="99"><path id="" clip-rule="evenodd" transform="matrix(1 0 0 1 0 0)" d="M8.866E-06 841L594.96 841L594.96 841L594.96 -0.9199829L594.96 -0.9199829L8.866E-06 -0.9199829z" /></clipPath><clipPath id="100"><path id="" clip-rule="evenodd" transform="matrix(1 0 0 1 0 0)" d="M8.866E-06 841L594.96 841L594.96 841L594.96 -0.9199829L594.96 -0.9199829L8.866E-06 -0.9199829z" /></clipPath><clipPath id="101"><path id="" clip-rule="evenodd" transform="matrix(1 0 0 1 0 0)" d="M8.866E-06 841L594.96 841L594.96 841L594.96 -0.9199829L594.96 -0.9199829L8.866E-06 -0.9199829z" /></clipPath><clipPath id="102"><path id="" clip-rule="evenodd" transform="matrix(1 0 0 1 0 0)" d="M8.866E-06 841L594.96 841L594.96 841L594.96 -0.9199829L594.96 -0.9199829L8.866E-06 -0.9199829z" /></clipPath><clipPath id="103"><path id="" clip-rule="evenodd" transform="matrix(1 0 0 1 0 0)" d="M8.866E-06 841L594.96 841L594.96 841L594.96 -0.9199829L594.96 -0.9199829L8.866E-06 -0.9199829z" /></clipPath><clipPath id="104"><path id="" clip-rule="evenodd" transform="matrix(1 0 0 1 0 0)" d="M8.866E-06 841L594.96 841L594.96 841L594.96 -0.9199829L594.96 -0.9199829L8.866E-06 -0.9199829z" /></clipPath><clipPath id="105"><path id="" clip-rule="evenodd" transform="matrix(1 0 0 1 0 0)" d="M8.866E-06 841L594.96 841L594.96 841L594.96 -0.9199829L594.96 -0.9199829L8.866E-06 -0.9199829z" /></clipPath><clipPath id="106"><path id="" clip-rule="evenodd" transform="matrix(1 0 0 1 0 0)" d="M8.866E-06 841L594.96 841L594.96 841L594.96 -0.9199829L594.96 -0.9199829L8.866E-06 -0.9199829z" /></clipPath><clipPath id="107"><path id="" clip-rule="evenodd" transform="matrix(1 0 0 1 0 0)" d="M59.52 90.15997L594.96 90.15997L594.96 90.15997L594.96 65.19995L594.96 65.19995L59.52 65.19995z" /></clipPath><clipPath id="108"><path id="" clip-rule="evenodd" transform="matrix(1 0 0 1 0 0)" d="M30.6 78.03998L49.56 78.03998L49.56 78.03998L49.56 68.79999L49.56 68.79999L30.6 68.79999z" /></clipPath><clipPath id="109"><path id="" clip-rule="evenodd" transform="matrix(1 0 0 1 0 0)" d="M30.6 78.03998L49.56 78.03998L49.56 78.03998L49.56 68.79999L49.56 68.79999L30.6 68.79999z" /></clipPath><clipPath id="110"><path id="" clip-rule="evenodd" transform="matrix(1 0 0 1 0 0)" d="M30.6 78.03998L49.56 78.03998L49.56 78.03998L49.56 68.79999L49.56 68.79999L30.6 68.79999z" /></clipPath><clipPath id="111"><path id="" clip-rule="evenodd" transform="matrix(1 0 0 1 0 0)" d="M30.6 78.03998L49.56 78.03998L49.56 78.03998L49.56 68.79999L49.56 68.79999L30.6 68.79999z" /></clipPath></defs><g transform="matrix(1.333333 0 0 1.333333 0 0)"><g clip-path="url(#1)"><g clip-path="url(#2)"></g><g clip-path="url(#3)"><path id="1" transform="matrix(1 0 0 -1 0 841)" d="M34.56 829.92L560.52 829.92L560.52 829.92L560.52 830.64L560.52 830.64L34.56 830.64z" stroke="none" fill="#000000" fill-rule="evenodd" /></g><g clip-path="url(#4)"><g transform="matrix(0.3332918 0 0 0.5651802 29.4 -53.5199)"><g transform="matrix(1 0 0 1 0 0)"><image x="0" y="0" xlink:href="img_02.png" width="1604" height="1581" /></g></g></g><g clip-path="url(#5)"><g transform="matrix(0.7485498 0 0 0.6621053 0.39992 776.8116)"><g transform="matrix(1 0 0 1 0 0)"><image x="0" y="0" xlink:href="img_13.png" width="793" height="95" /></g></g></g><g clip-path="url(#6)"></g><g clip-path="url(#7)"></g><g clip-path="url(#8)"></g><g clip-path="url(#9)"></g><g clip-path="url(#10)"></g><g clip-path="url(#11)"></g><g clip-path="url(#12)"></g><g clip-path="url(#13)"></g><g clip-path="url(#14)"></g><g clip-path="url(#15)"></g><g clip-path="url(#16)"></g><g clip-path="url(#17)"></g><g clip-path="url(#18)"></g><g clip-path="url(#19)"></g><g clip-path="url(#20)"></g><g clip-path="url(#21)"></g><g clip-path="url(#22)"></g><g clip-path="url(#23)"></g><g clip-path="url(#24)"></g><g clip-path="url(#25)"></g><g clip-path="url(#26)"></g><g clip-path="url(#27)"></g><g clip-path="url(#28)"></g><g clip-path="url(#29)"></g><g clip-path="url(#30)"></g><g clip-path="url(#31)"></g><g clip-path="url(#32)"></g><g clip-path="url(#33)"></g><g clip-path="url(#34)"></g><g clip-path="url(#35)"></g><g clip-path="url(#36)"></g><g clip-path="url(#37)"></g><g clip-path="url(#38)"></g><g clip-path="url(#39)"></g><g clip-path="url(#40)"></g><g clip-path="url(#41)"></g><g clip-path="url(#42)"></g><g clip-path="url(#43)"></g><g clip-path="url(#44)"></g><g clip-path="url(#45)"></g><g clip-path="url(#46)"></g><g clip-path="url(#47)"></g><g clip-path="url(#48)"></g><g clip-path="url(#49)"></g><g clip-path="url(#50)"></g><g clip-path="url(#51)"></g><g clip-path="url(#52)"></g><g clip-path="url(#53)"></g><g clip-path="url(#54)"></g><g clip-path="url(#55)"></g><g clip-path="url(#56)"></g><g clip-path="url(#57)"></g><g clip-path="url(#58)"></g><g clip-path="url(#59)"></g><g clip-path="url(#60)"></g><g clip-path="url(#61)"></g><g clip-path="url(#62)"></g><g clip-path="url(#63)"></g><g clip-path="url(#64)"></g><g clip-path="url(#65)"></g><g clip-path="url(#66)"></g><g clip-path="url(#67)"></g><g clip-path="url(#68)"></g><g clip-path="url(#69)"></g><g clip-path="url(#70)"></g><g clip-path="url(#71)"></g><g clip-path="url(#72)"></g><g clip-path="url(#73)"></g><g clip-path="url(#74)"></g><g clip-path="url(#75)"></g><g clip-path="url(#76)"></g><g clip-path="url(#77)"></g><g clip-path="url(#78)"></g><g clip-path="url(#79)"></g><g clip-path="url(#80)"></g><g clip-path="url(#81)"></g><g clip-path="url(#82)"></g><g clip-path="url(#83)"></g><g clip-path="url(#84)"></g><g clip-path="url(#85)"></g><g clip-path="url(#86)"></g><g clip-path="url(#87)"></g><g clip-path="url(#88)"></g><g clip-path="url(#89)"></g><g clip-path="url(#90)"></g><g clip-path="url(#91)"></g><g clip-path="url(#92)"></g><g clip-path="url(#93)"></g><g clip-path="url(#94)"></g><g clip-path="url(#95)"></g><g clip-path="url(#96)"></g><g clip-path="url(#97)"></g><g clip-path="url(#98)"></g><g clip-path="url(#99)"></g><g clip-path="url(#100)"></g><g clip-path="url(#101)"></g><g clip-path="url(#102)"></g><g clip-path="url(#103)"></g><g clip-path="url(#104)"></g><g clip-path="url(#105)"></g><g clip-path="url(#106)"></g><g clip-path="url(#107)"><g transform="matrix(0.4222222 0 0 0.4222222 73 65.17999)"><g transform="matrix(1 0 0 1 0 0)"><image x="0" y="0" xlink:href="img_14.png" width="45" height="45" /></g></g></g><g clip-path="url(#108)"><g clip-path="url(#109)"></g><g clip-path="url(#110)"></g><g clip-path="url(#111)"></g></g></g></g></svg>